<svg width="128" height="128" viewBox="0 0 128 128" fill="none" xmlns="http://www.w3.org/2000/svg">
  <rect width="128" height="128" rx="32" fill="#C9A25C"/>
  <path d="M64 28C57.3726 28 52 33.3726 52 40C52 46.6274 57.3726 52 64 52C70.6274 52 76 46.6274 76 40C76 33.3726 70.6274 28 64 28ZM82 42C82 31.5066 73.4934 23 63 23H65C54.5066 23 46 31.5066 46 42C46 52.4934 54.5066 61 65 61H63C73.4934 61 82 52.4934 82 42Z" fill="#1A1A1A"/>
  <path d="M35.8787 36.1213C39.8424 32.1576 45.5706 30 51.6569 30C57.7432 30 63.4714 32.1576 67.4352 36.1213L64 39.5565L35.8787 36.1213Z" fill="#1A1A1A"/>
  <path d="M92.1213 36.1213C88.1576 32.1576 82.4294 30 76.3431 30C70.2568 30 64.5286 32.1576 60.5648 36.1213L64 39.5565L92.1213 36.1213Z" fill="#1A1A1A"/>
  <path d="M35.8787 91.8787C39.8424 95.8424 45.5706 98 51.6569 98C57.7432 98 63.4714 95.8424 67.4352 91.8787L64 88.4435L35.8787 91.8787Z" fill="#1A1A1A"/>
  <path d="M92.1213 91.8787C88.1576 95.8424 82.4294 98 76.3431 98C70.2568 98 64.5286 95.8424 60.5648 91.8787L64 88.4435L92.1213 91.8787Z" fill="#1A1A1A"/>
  <path d="M40 64C40 58.4772 44.4772 54 50 54H78C83.5228 54 88 58.4772 88 64V76C88 81.5228 83.5228 86 78 86H50C44.4772 86 40 81.5228 40 76V64Z" fill="#1A1A1A"/>
</svg>
